PathFileType	4	(X/Y/Z)
DataRate	CameraRate	NumFrames	NumMarkers	Units	OrigDataRate	OrigDataStartFrame	OrigNumFrames	
  120.0	  120.0	    5	     64	     mm	  120.0	      180	    239
Frame#	Time	LASI			RASI			LPSI			RPSI			RTH1			RTH2			RTH3			RLFC			RMFC			LTH1			LTH2			LTH3			LLFC			LMFC			RTB1			RTB2			RTB3			RLMAL			RMMAL			LTB1			LTB2			LTB3			LMMAL			LLMAL			RCAL			RTOE			RMT5			LCAL			LTOE			LMT5			LACR			RACR			CLAV			C7			LASH			LPSH			RASH			RPSH			RUA1			RUA2			RUA3			RLEL			RMEL			LUA1			LUA2			LUA3			LLEL			LMEL			RFAsuperior			RFAradius			RFAulna			LFAsuperior			LFAradius			LFAulna			RHJC			LHJC			RKJC			LKJC			RAJC			LAJC			RSJC			LSJC			REJC			LEJC			
		X1	Y1	Z1	X2	Y2	Z2	X3	Y3	Z3	X4	Y4	Z4	X5	Y5	Z5	X6	Y6	Z6	X7	Y7	Z7	X8	Y8	Z8	X9	Y9	Z9	X10	Y10	Z10	X11	Y11	Z11	X12	Y12	Z12	X13	Y13	Z13	X14	Y14	Z14	X15	Y15	Z15	X16	Y16	Z16	X17	Y17	Z17	X18	Y18	Z18	X19	Y19	Z19	X20	Y20	Z20	X21	Y21	Z21	X22	Y22	Z22	X23	Y23	Z23	X24	Y24	Z24	X25	Y25	Z25	X26	Y26	Z26	X27	Y27	Z27	X28	Y28	Z28	X29	Y29	Z29	X30	Y30	Z30	X31	Y31	Z31	X32	Y32	Z32	X33	Y33	Z33	X34	Y34	Z34	X35	Y35	Z35	X36	Y36	Z36	X37	Y37	Z37	X38	Y38	Z38	X39	Y39	Z39	X40	Y40	Z40	X41	Y41	Z41	X42	Y42	Z42	X43	Y43	Z43	X44	Y44	Z44	X45	Y45	Z45	X46	Y46	Z46	X47	Y47	Z47	X48	Y48	Z48	X49	Y49	Z49	X50	Y50	Z50	X51	Y51	Z51	X52	Y52	Z52	X53	Y53	Z53	X54	Y54	Z54	X55	Y55	Z55	X56	Y56	Z56	X57	Y57	Z57	X58	Y58	Z58	X59	Y59	Z59	X60	Y60	Z60	X61	Y61	Z61	X62	Y62	Z62	X63	Y63	Z63	X64	Y64	Z64	

180	1.49167	615.43451	1098.55811	-627.92444	759.47650	1106.24707	-407.53799	514.76245	1134.80725	-452.76065	557.63672	1133.00354	-380.39380	726.57013	941.34399	-310.10355	751.68304	829.99335	-330.22128	664.81519	726.37286	-291.31528	685.39441	551.20349	-293.50412	587.21387	532.29773	-368.68442	506.99817	895.20660	-631.56146	537.97632	766.45911	-644.52838	465.68890	665.67291	-587.35944	469.53577	563.94489	-595.47583	518.58441	550.11401	-481.69406	667.69446	417.01779	-356.53003	692.18146	355.76105	-283.70172	668.87476	250.28955	-346.79581	662.61762	124.76255	-286.90424	625.83588	130.94347	-358.95206	514.62750	428.58341	-575.05017	459.24750	348.11340	-610.42065	509.29654	228.88031	-575.55548	503.21170	127.47369	-529.35638	449.51120	124.90219	-589.49188	582.13507	99.52067	-289.27713	742.58862	57.39612	-437.46362	773.87060	54.44162	-324.59372	422.92566	97.54106	-519.05866	630.40729	63.24964	-615.27789	534.04407	53.28339	-680.34387	501.58508	1603.41296	-574.51416	679.01318	1603.71399	-327.71536	677.68426	1551.04065	-476.40683	553.04419	1601.56250	-417.03388	562.01422	1559.99182	-599.11664	434.65362	1541.68799	-552.51569	724.46948	1560.20703	-369.44766	630.92188	1553.64819	-277.93243	725.09308	1570.82031	-240.65122	802.74976	1538.96997	-224.15576	771.61218	1507.54138	-162.19916	889.53479	1497.58716	-71.90134	887.79932	1424.75452	-107.33942	435.00482	1574.70581	-636.33404	441.92865	1556.15442	-698.48450	382.29800	1484.19299	-674.08655	315.31000	1487.06116	-840.38818	334.75009	1409.67212	-830.35303	968.43329	1541.52124	-133.71512	1098.30420	1539.15186	-260.03217	1128.73645	1561.65369	-199.14033	395.37451	1519.26453	-889.38593	560.89551	1509.24902	-971.78204	519.61047	1518.84607	-1031.14001	675.74731	1032.16454	-399.05650	579.25509	1030.01983	-553.55768	636.30414	541.75061	-331.09427	494.06009	557.02945	-538.58495	644.22675	127.85301	-322.92815	476.36145	126.18794	-559.42413	677.69568	1556.92761	-323.69005	498.33392	1550.83990	-575.81616	888.66705	1461.17084	-89.62038	325.03004	1448.36664	-835.37061	
181	1.50000	615.47644	1098.55676	-627.90625	759.54486	1106.21863	-407.51724	514.85114	1134.80676	-452.77954	557.70758	1133.00061	-380.41315	726.64142	941.33856	-310.13861	751.73193	830.03278	-330.19888	664.86523	726.38275	-291.34985	685.38715	551.19476	-293.57764	587.23547	532.30579	-368.66946	507.05612	895.19312	-631.62286	538.01367	766.46106	-644.57733	465.71542	665.67200	-587.37976	469.56073	563.93994	-595.47839	518.62634	550.13275	-481.70682	667.74860	417.02508	-356.55441	692.19202	355.76422	-283.74670	668.87476	250.28952	-346.79575	662.62775	124.76936	-286.87720	625.83069	130.98000	-358.95422	514.64594	428.55917	-575.03937	459.24774	348.11362	-610.42120	509.31677	228.88222	-575.54273	503.22232	127.49468	-529.35547	449.53149	124.88120	-589.49658	582.12634	99.50228	-289.29489	742.62219	57.41904	-437.43307	773.86078	54.43167	-324.61096	422.91281	97.54222	-519.05438	630.42407	63.24812	-615.27954	534.02905	53.27934	-680.35632	501.69965	1603.37085	-574.61639	679.13391	1603.66711	-327.76254	677.77539	1551.01428	-476.43829	553.11420	1601.59302	-417.07696	562.11072	1560.00732	-599.17987	434.73578	1541.72913	-552.58789	724.76563	1560.06506	-369.38599	631.05591	1553.63001	-277.94226	725.23688	1570.78626	-240.70276	802.83423	1538.96948	-224.21788	771.72900	1507.52612	-162.22646	889.66718	1497.52429	-71.96880	888.03003	1424.70386	-107.34209	435.10025	1574.71484	-636.39337	442.03012	1556.14673	-698.50885	382.44376	1484.15247	-674.14258	315.37308	1487.03845	-840.39954	334.79868	1409.64294	-830.36798	968.60046	1541.42969	-133.75142	1098.41516	1538.99231	-260.07437	1128.88037	1561.52539	-199.21445	395.52353	1519.16956	-889.41943	560.92035	1509.12219	-971.75037	519.66534	1518.69299	-1031.20850	675.79051	1032.14871	-399.04526	579.31529	1030.01669	-553.55785	636.31131	541.75027	-331.12355	494.09354	557.03635	-538.59261	644.22922	127.87468	-322.91571	476.37691	126.18794	-559.42603	677.91077	1556.84753	-323.66412	498.42325	1550.86822	-575.88388	888.84860	1461.11407	-89.65545	325.08588	1448.34070	-835.38376	
182	1.50833	615.51593	1098.56067	-627.88000	759.61737	1106.22656	-407.63412	514.90869	1134.81018	-452.85147	557.78302	1132.99097	-380.42218	726.71832	941.34985	-310.16782	751.78601	830.02808	-330.23404	664.88184	726.35602	-291.36172	685.40149	551.18488	-293.60400	587.23993	532.30890	-368.66034	507.10577	895.21100	-631.67017	538.05804	766.43781	-644.58051	465.74777	665.67847	-587.42358	469.58676	563.95239	-595.50714	518.63837	550.15906	-481.70309	667.65686	416.83914	-356.27957	692.23431	355.76837	-283.75500	668.86529	250.23720	-346.75211	662.63831	124.75800	-286.91330	625.86768	130.98590	-358.99457	514.68420	428.57223	-575.05011	459.30371	348.12161	-610.46643	509.35214	228.89004	-575.57929	503.21857	127.40280	-529.36981	449.55136	124.88814	-589.51794	582.12726	99.53202	-289.30164	742.58820	57.40533	-437.46668	773.86401	54.42629	-324.58286	422.93906	97.55156	-519.02008	630.43445	63.22816	-615.29645	534.03851	53.29131	-680.38263	501.82022	1603.41052	-574.64441	679.26215	1603.65417	-327.83426	677.87616	1551.04968	-476.44299	553.23627	1601.58972	-417.15720	562.23730	1559.99255	-599.23187	434.82556	1541.74976	-552.63080	724.86346	1560.05322	-369.41541	631.17883	1553.65503	-277.97287	725.36957	1570.77100	-240.75383	802.97565	1538.93640	-224.29842	771.82867	1507.46985	-162.30319	889.77448	1497.48767	-72.02627	887.97668	1424.66003	-107.44161	435.24051	1574.69995	-636.44678	442.14294	1556.14331	-698.57739	382.51880	1484.15735	-674.20654	315.48114	1487.04089	-840.44421	334.85327	1409.64514	-830.38983	968.73694	1541.34985	-133.86296	1098.59326	1538.85388	-260.39227	1129.04871	1561.36963	-199.26651	395.59906	1519.12720	-889.51007	560.89386	1509.05640	-971.68805	519.79761	1518.56531	-1031.28088	675.86273	1032.15838	-399.08742	579.37653	1030.01115	-553.59404	636.32071	541.74689	-331.13217	494.11256	557.05573	-538.60512	644.25299	127.87195	-322.95393	476.38496	126.14547	-559.44388	678.02115	1556.85413	-323.69414	498.53143	1550.87115	-575.93134	888.87558	1461.07385	-89.73394	325.16721	1448.34302	-835.41702	
183	1.51667	615.56012	1098.54907	-627.91760	759.66919	1106.22534	-407.66644	515.04810	1134.80127	-452.91281	557.85736	1132.99927	-380.52878	726.76123	941.33551	-310.22211	751.81158	830.01105	-330.35226	664.92493	726.38483	-291.36728	685.44049	551.18603	-293.61847	587.26123	532.31091	-368.65753	507.14786	895.17877	-631.64642	538.10736	766.43390	-644.59265	465.79456	665.66675	-587.43518	469.62772	563.94153	-595.50214	518.67779	550.13849	-481.73709	667.66949	416.84720	-356.39716	692.24725	355.77591	-283.73392	668.86414	250.23529	-346.74786	662.63812	124.78938	-286.89828	625.84424	130.99358	-359.01080	514.68957	428.57019	-575.05322	459.30429	348.12180	-610.46710	509.33881	228.89136	-575.57037	503.21204	127.47272	-529.35675	449.56946	124.89319	-589.49939	582.11536	99.52515	-289.30881	742.59796	57.39005	-437.47943	773.84088	54.41959	-324.61230	422.92444	97.54489	-519.04040	630.43597	63.25139	-615.33630	534.01398	53.28158	-680.34961	501.91010	1603.41077	-574.70367	679.38678	1603.66882	-327.85431	677.98199	1551.05762	-476.48163	553.35669	1601.60889	-417.19965	562.30530	1559.98364	-599.24194	435.01520	1541.75537	-552.72400	724.96857	1560.03967	-369.55585	631.30395	1553.69275	-278.00424	725.49805	1570.73157	-240.83409	803.10547	1538.92798	-224.37387	771.95142	1507.45044	-162.38002	889.88751	1497.44055	-72.08491	888.30878	1424.57190	-107.52834	435.32645	1574.75171	-636.51703	442.24731	1556.13892	-698.60461	382.67755	1484.18994	-674.23572	315.57242	1487.05896	-840.52319	334.93399	1409.62036	-830.45514	968.87976	1541.27344	-133.88382	1098.71594	1538.69995	-260.41135	1129.16919	1561.21472	-199.29237	395.66409	1519.12476	-889.56165	560.95654	1508.90747	-971.82782	519.83716	1518.48706	-1031.31616	675.92243	1032.15969	-399.12958	579.44162	1030.00360	-553.63959	636.35086	541.74847	-331.13800	494.15276	557.04001	-538.61961	644.24118	127.89148	-322.95454	476.39075	126.18295	-559.42807	678.13626	1556.86621	-323.78004	498.66025	1550.86951	-575.98297	889.09814	1461.00623	-89.80663	325.25320	1448.33966	-835.48917	
184	1.52500	615.60034	1098.54895	-627.94568	759.72516	1106.22168	-407.69870	515.08661	1134.80273	-452.92511	557.90601	1133.01318	-380.49899	726.83270	941.33606	-310.26166	751.86389	830.00421	-330.39264	664.99982	726.42645	-291.39905	685.47937	551.18726	-293.63293	587.24103	532.30371	-368.64099	507.16184	895.19757	-631.69464	538.11847	766.44305	-644.59473	465.78290	665.68158	-587.45166	469.62665	563.94617	-595.54932	518.71991	550.15723	-481.74982	667.64575	416.84692	-356.33853	692.25928	355.77054	-283.81052	668.89386	250.23590	-346.73621	662.62793	124.78268	-286.92511	625.80603	130.97063	-358.93265	514.73541	428.56934	-575.10236	459.33395	348.11939	-610.48077	509.33859	228.89125	-575.56995	503.19467	127.49543	-529.36645	449.53711	124.88081	-589.49115	582.13361	99.52208	-289.31644	742.63275	57.43358	-437.49072	773.85828	54.41737	-324.61630	422.92700	97.55342	-519.06018	630.43414	63.23286	-615.31244	533.98578	53.29301	-680.34058	502.03677	1603.43005	-574.73785	679.48822	1603.65906	-327.92688	678.06805	1551.05310	-476.52087	553.46643	1601.61755	-417.27231	562.42822	1559.95654	-599.29987	434.95096	1541.86243	-552.73712	725.07965	1560.04480	-369.63007	631.40198	1553.66724	-278.07843	725.61194	1570.70447	-240.89783	803.21594	1538.92102	-224.42593	772.08154	1507.41296	-162.45666	889.99237	1497.43689	-72.16480	888.33008	1424.59204	-107.50890	435.57727	1575.12109	-636.80505	442.30719	1556.14221	-698.62836	382.69275	1484.20032	-674.30512	315.62299	1487.08997	-840.53760	334.99799	1409.64697	-830.48047	969.00915	1541.23523	-133.96915	1098.89539	1538.54834	-260.51740	1129.32471	1561.06018	-199.33041	395.76382	1519.15356	-889.58771	561.01196	1508.84973	-971.91858	519.93463	1518.42712	-1031.36304	675.97916	1032.15861	-399.15392	579.47392	1030.00814	-553.64843	636.36020	541.74548	-331.13696	494.17328	557.05170	-538.64957	644.21698	127.87665	-322.92888	476.36589	126.18812	-559.42880	678.24081	1556.85602	-323.85425	498.68959	1550.90949	-576.01849	889.16122	1461.01447	-89.83685	325.31049	1448.36847	-835.50903	
